<svg width="28" height="28" fill="#fff" xmlns="http://www.w3.org/2000/svg"><path fill-rule="evenodd" clip-rule="evenodd" d="M7.98 17.115a3.111 3.111 0 003.057 2.497h9.94a3.115 3.115 0 003.068-2.497l1.61-8.47a1.045 1.045 0 00-.245-.875 1.124 1.124 0 00-.852-.385H8.307l-.84-4.188a1.106 1.106 0 00-1.097-.864H2.333v2.124H5.46l2.52 12.658zm2.193-.397l-1.446-7.21v-.011h14.501l-1.376 7.221c-.094.455-.479.805-.934.77h-9.835c-.478-.011-.816-.315-.91-.77z" fill="#F7F5F9"/><path fill="#F7F5F9" d="M10.5 22.167h11.667V24.5H10.5z"/></svg>